<?xml version="1.0" standalone="no"?>
<!DOCTYPE svg PUBLIC "-//W3C//DTD SVG 20010904//EN"
 "http://www.w3.org/TR/2001/REC-SVG-20010904/DTD/svg10.dtd">
<svg version="1.0" xmlns="http://www.w3.org/2000/svg"
 width="256.000000pt" height="256.000000pt" viewBox="0 0 256.000000 256.000000"
 preserveAspectRatio="xMidYMid meet">

<g transform="translate(0.000000,256.000000) scale(0.100000,-0.100000)"
fill="#000000" stroke="none">
<path d="M1 1953 c1 -393 5 -581 10 -533 23 205 96 403 214 580 65 97 239 272
335 335 179 118 375 191 580 214 48 5 -140 9 -532 10 l-608 1 1 -607z"/>
<path d="M1375 2553 c262 -31 432 -90 625 -218 96 -64 271 -239 335 -335 118
-178 191 -375 214 -580 5 -48 9 140 10 533 l1 607 -607 -1 c-335 -1 -594 -4
-578 -6z"/>
<path d="M1 608 l-1 -608 608 1 c392 1 580 5 532 10 -205 23 -403 96 -580 214
-96 64 -271 239 -335 335 -118 177 -191 375 -214 580 -5 48 -9 -140 -10 -532z"/>
<path d="M2547 1135 c-8 -90 -19 -140 -58 -261 -62 -190 -157 -342 -309 -494
-226 -226 -454 -332 -805 -373 -16 -2 243 -5 578 -6 l607 -1 0 605 c0 333 -2
605 -4 605 -1 0 -6 -34 -9 -75z"/>
</g>
</svg>
