<?xml version="1.0" encoding="UTF-8" standalone="no"?>
<svg id="svg2" xmlns:rdf="http://www.w3.org/1999/02/22-rdf-syntax-ns#" xmlns="http://www.w3.org/2000/svg" height="500" width="500" version="1.1" xmlns:cc="http://creativecommons.org/ns#" xmlns:dc="http://purl.org/dc/elements/1.1/">
 <metadata id="metadata7">
  <rdf:RDF>
   <cc:Work rdf:about="">
    <dc:format>image/svg+xml</dc:format>
    <dc:type rdf:resource="http://purl.org/dc/dcmitype/StillImage"/>
    <dc:title/>
   </cc:Work>
  </rdf:RDF>
 </metadata>
 <g id="g20" transform="matrix(1.3632 0 0 1.3632 -90.112 -95.565)">
  <title id="title8">Layer 1</title>
  <g id="svg_12" stroke="null">
   <g id="svg_10" transform="matrix(.78877 0 0 .82189 -372.41 -414.39)">
    <title id="title10" transform="translate(638.45 662.64)">background</title>
    <rect id="svg_8" x="637.45" y="661.64" width="302" height="302" fill="none"/>
   </g>
   <g id="svg_11" transform="matrix(.78877 0 0 .82189 -372.41 -414.39)">
    <title id="title14" transform="translate(638.45 662.64)">Layer 1</title>
    <g id="svg_6" transform="rotate(15 788.45 811.14)">
     <path id="svg_7" d="m855.08 856.65c-63.196 0-114.39-48.855-114.39-109.1 0-19.839 5.9698-38.187 15.679-54.203-52.676 14.492-91.42 60.271-91.42 115.16 0 66.48 56.502 120.4 126.21 120.4 57.557 0 105.59-36.978 120.78-87.186-16.825 9.2293-36.061 14.925-56.863 14.925z" fill="#4c4c4c" stroke="null"/>
    </g>
   </g>
  </g>
 </g>
 <path id="path4478" d="m182.5 85c-4.1476 0-7.5 3.3604-7.5 7.5 0 4.1396 3.3524 7.5 7.5 7.5h195c4.1476 0 7.5-3.3604 7.5-7.5 0-4.1396-3.3524-7.5-7.5-7.5zm-75 45c-4.1476 0-7.5 3.3604-7.5 7.5-8.8e-4 4.1396 3.3524 7.5 7.5 7.5h105c4.1476 0 7.5-3.3604 7.5-7.5s-3.3524-7.5-7.5-7.5zm135 0c-4.1476 0-7.5 3.3604-7.5 7.5s3.3524 7.5 7.5 7.5h165c4.1476 0 7.5-3.3604 7.5-7.5s-3.3524-7.5-7.5-7.5zm-180 45c-4.1476 0-7.5 3.3604-7.5 7.5s3.3524 7.5 7.5 7.5h240c4.1476 0 7.5-3.3604 7.5-7.5s-3.3524-7.5-7.5-7.5zm270 0c-4.1476 0-7.5 3.3604-7.5 7.5s3.3524 7.5 7.5 7.5h60c4.1476 0 7.5-3.3604 7.5-7.5s-3.3524-7.5-7.5-7.5zm-300 45c-4.1476 0-7.5 3.3604-7.5 7.5s3.3524 7.5 7.5 7.5h90c4.1476 0 7.5-3.3604 7.5-7.5s-3.3524-7.5-7.5-7.5zm120 0c-4.1476 0-7.5 3.3604-7.5 7.5s3.3524 7.5 7.5 7.5h315c4.1476 0 7.5-3.3604 7.5-7.5s-3.3524-7.5-7.5-7.5zm-75 45c-4.1476 0-7.5 3.3604-7.5 7.5s3.3524 7.5 7.5 7.5h165c4.1476 0 7.5-3.3604 7.5-7.5 8.8e-4 -4.1396-3.3524-7.5-7.5-7.5zm195 0c-4.1476 0-7.5 3.3604-7.5 7.5s3.3524 7.5 7.5 7.5h165c4.1476 0 7.5-3.3604 7.5-7.5 8.8e-4 -4.1396-3.3524-7.5-7.5-7.5zm-165 45c-4.1476 0-7.5 3.3604-7.5 7.5s3.3524 7.5 7.5 7.5h60c4.1476 0 7.5-3.3604 7.5-7.5s-3.3524-7.5-7.5-7.5zm90 0c-4.1476 0-7.5 3.3604-7.5 7.5s3.3524 7.5 7.5 7.5h165c4.1476 0 7.5-3.3604 7.5-7.5s-3.3524-7.5-7.5-7.5zm-120 45c-4.1476 0-7.5 3.3604-7.5 7.5s3.3524 7.5 7.5 7.5h135c4.1467 0 7.5-3.3604 7.5-7.5s-3.3524-7.5-7.5-7.5zm165 0c-4.1476 0-7.5 3.3604-7.5 7.5s3.3524 7.5 7.5 7.5h150c4.1476 0 7.5-3.3604 7.5-7.5s-3.3524-7.5-7.5-7.5zm-90 45c-4.1476 0-7.5 3.3604-7.5 7.5s3.3524 7.5 7.5 7.5h195c4.1476 0 7.5-3.3604 7.5-7.5s-3.3524-7.5-7.5-7.5z" fill="#ccc" opacity=".9"/>
</svg>
