<svg  height="100%" width="100%" version="1.1" viewBox="0 0 500 500" xmlns="http://www.w3.org/2000/svg">
 <metadata id="metadata7">image/svg+xml</metadata>

 <g>
  <title>background</title>
  <rect x="-1" y="-1" width="502" height="502" id="canvas_background" fill="none"/>
 </g>
 <g>
  <title>Layer 1</title>
  <g id="svg_12" stroke="null">
   <g id="svg_10" transform="matrix(0.8583108779270228,0,0,0.8185758205503282,-327.8838789239544,-518.139982076379) " stroke="null">
    <title>background</title>
    <rect fill="none" id="svg_8" height="302" width="302" y="635.903273" x="662.08988" stroke="null"/>
   </g>
   <g id="svg_11" transform="matrix(0.8583108779270228,0,0,0.8185758205503282,-327.8838789239544,-518.139982076379) " stroke="null">
    <title>Layer 1</title>
    <g transform="rotate(15 813.0898437499991,785.4031982421875) " id="svg_6" stroke="null">
     <path id="svg_7" fill="#4c4c4c" d="m879.7238,830.92314c-63.19576,0 -114.39011,-48.85542 -114.39011,-109.09786c0,-19.83897 5.96983,-38.18684 15.67915,-54.20265c-52.67631,14.49173 -91.41972,60.27071 -91.41972,115.16356c0,66.4801 56.50224,120.39773 126.21123,120.39773c57.5569,0 105.58726,-36.97841 120.7823,-87.18595c-16.8252,9.22929 -36.06105,14.92517 -56.86285,14.92517z" stroke="null"/>
    </g>
   </g>
  </g>
  <path id="path4-4" d="m421.36,214.37c-4.6702,-7.3101 -10.458,-13.808 -17.362,-19.493c-24.13,-19.04 -49.933,-21.535 -70.968,-19.975c-11.529,-45.217 -40.786,-71.024 -84.37,-71.473c-12.59,0 -24.57,2.5382 -35.941,7.6146s-21.219,11.574 -29.545,19.494c-8.3254,7.9192 -14.924,17.869 -19.798,29.849c-5.4868,15.355 -6.8295,23.692 -7.0055,39.545c-15.682,-3.9634 -37.045,-4.9672 -50.256,0.30459c-15.839,6.9039 -27.006,18.681 -33.504,35.332c-4.0611,11.168 -5.2795,22.133 -3.655,32.896c1.6244,10.762 5.9902,20.61 13.097,29.545c7.107,8.9345 16.042,15.432 26.803,19.493c7.5132,2.8428 14.924,4.2642 22.235,4.2642l218.69,0c17.463,0 33.504,2.7385 48.125,-7.2113c35.583,-25.102 42.547,-69.324 23.453,-100.18l0.0015,-0.00509z" fill="#eeeeee" stroke-width="15" stroke-miterlimit="4" stroke="#969696"/>
  <path id="path4" d="m369.75,372.68q2.9665,1.5974 3.7652,4.9062q0.79868,3.3088 -0.79868,6.2754l-3.9934,6.9599q-1.7115,2.9665 -5.0203,3.7652q-3.3088,0.79869 -6.1612,-0.79868l-17,-9.6983l0,19.511q0,3.3088 -2.396,5.7049q-2.396,2.396 -5.7049,2.5101l-8.1009,0q-3.3088,0 -5.819,-2.5101q-2.5101,-2.5101 -2.396,-5.7049l0,-19.511l-16.886,9.6983q-2.9665,1.7115 -6.2754,0.79868q-3.3088,-0.91277 -4.9062,-3.7652l-4.1075,-6.9599q-1.5974,-2.9665 -0.79868,-6.2754q0.79868,-3.3088 3.8793,-4.9062l16.886,-9.8124l-16.886,-9.8124q-2.9665,-1.5974 -3.8793,-4.9062q-0.91278,-3.3088 0.79868,-6.2754l4.1075,-6.9599q1.7115,-2.9665 4.9062,-3.7652q3.1947,-0.79868 6.2754,0.79868l16.886,9.6983l0,-19.511q0,-3.3088 2.396,-5.7049q2.396,-2.396 5.819,-2.5101l8.1009,0q3.3088,0 5.7049,2.5101q2.396,2.5101 2.396,5.7049l0,19.511l17,-9.6983q2.9665,-1.7115 6.1612,-0.79868q3.1947,0.91278 5.0203,3.7652l3.9934,6.9599q1.7115,2.9665 0.79868,6.2754q-0.91277,3.3088 -3.7652,4.9062l-16.886,9.8124l16.886,9.8124z" fill="#ffffff" stroke-width="11.997" stroke-miterlimit="4" stroke="#969696"/>
  <metadata transform="matrix(0.11111111773384952,0,0,0.11111111773384952,0,0) " id="svg_18">image/svg+xml</metadata>
  <g stroke="null" id="svg_22">
   <g stroke="null" transform="matrix(0.9895973312879183,0,0,0.9876051687064771,-444.1973938389832,-3287.601533919302) " id="svg_20">
    <title stroke="null" transform="translate(-1547.9998779296875,1331.9998779296875) translate(2000,0) translate(0,2000) ">background</title>
    <rect stroke="null" fill="none" id="svg_17" height="502" width="502" y="3330.999878" x="451.000122"/>
   </g>
   <g stroke="null" transform="matrix(0.9895973312879183,0,0,0.9876051687064771,-444.1973938389832,-3287.601533919302) " id="svg_21">
    <title stroke="null" transform="translate(-1547.9998779296875,1331.9998779296875) translate(2000,0) translate(0,2000) ">Layer 1</title>
    <path stroke="#969696" stroke-width="11.991557" stroke-miterlimit="4" fill="#3dade2" d="m659.600122,3591.209878l-48.322,34.125c-10.211,7.1853 -16.444,19.537 -15.313,32.839c1.6508,20.05 19.322,34.914 39.372,33.263c20.05,-1.6509 34.914,-19.322 33.263,-39.372l-5.017,-58.997c-0.14954,-1.9622 -2.287,-2.959 -3.9835,-1.8575l0.0005,-0.0005z" id="svg_16"/>
    <metadata stroke="null" transform="translate(-1547.9998779296875,1331.9998779296875) translate(2000,0) translate(0,2000) " id="svg_15">image/svg+xml</metadata>
    <metadata stroke="null" transform="translate(-1547.9998779296875,1331.9998779296875) translate(2000,0) translate(0,2000) " id="svg_14">image/svg+xml</metadata>
   </g>
  </g>
 </g>
</svg>