<?xml version="1.0" encoding="UTF-8" standalone="no"?>
<svg id="svg2" xmlns:rdf="http://www.w3.org/1999/02/22-rdf-syntax-ns#" xmlns="http://www.w3.org/2000/svg" height="500" width="500" version="1.1" xmlns:cc="http://creativecommons.org/ns#" xmlns:dc="http://purl.org/dc/elements/1.1/">
 <metadata id="metadata7">
  <rdf:RDF>
   <cc:Work rdf:about="">
    <dc:format>image/svg+xml</dc:format>
    <dc:type rdf:resource="http://purl.org/dc/dcmitype/StillImage"/>
    <dc:title/>
   </cc:Work>
  </rdf:RDF>
 </metadata>
 <g id="g20" transform="matrix(1.3632 0 0 1.3632 -90.114 -95.566)">
  <title id="title8">Layer 1</title>
  <g id="svg_12" stroke="null">
   <g id="svg_10" transform="matrix(.78877 0 0 .82189 -372.41 -414.39)">
    <title id="title10" transform="translate(638.45 662.64)">background</title>
    <rect id="svg_8" x="637.45" y="661.64" width="302" height="302" fill="none"/>
   </g>
   <g id="svg_11" transform="matrix(.78877 0 0 .82189 -372.41 -414.39)">
    <title id="title14" transform="translate(638.45 662.64)">Layer 1</title>
    <g id="svg_6" transform="rotate(15 788.45 811.14)">
     <path id="svg_7" d="m855.08 856.65c-63.196 0-114.39-48.855-114.39-109.1 0-19.839 5.9698-38.187 15.679-54.203-52.676 14.492-91.42 60.271-91.42 115.16 0 66.48 56.502 120.4 126.21 120.4 57.557 0 105.59-36.978 120.78-87.186-16.825 9.2293-36.061 14.925-56.863 14.925z" fill="#4c4c4c" stroke="null"/>
    </g>
   </g>
  </g>
 </g>
 <path id="path4-4" d="m384.75 330.83c-3.6725-5.7483-8.2232-10.858-13.652-15.329-18.975-14.972-39.265-16.935-55.806-15.708-9.0661-35.556-32.072-55.85-66.345-56.203-9.8998 0-19.321 1.9959-28.262 5.9878-8.9418 3.9918-16.686 9.1014-23.233 15.329-6.5467 6.2273-11.736 14.051-15.568 23.472-4.3146 12.074-5.3704 18.63-5.5088 31.096-12.332-3.1167-29.131-3.906-39.519 0.23952-12.455 5.4289-21.237 14.69-26.346 27.783-3.1935 8.7821-4.1515 17.404-2.8741 25.867 1.2774 8.4628 4.7104 16.207 10.299 23.233s12.614 12.135 21.077 15.329c5.908 2.2354 11.736 3.3532 17.484 3.3532h171.97c13.732 0 26.346 2.1534 37.843-5.6706 27.98-19.739 33.458-54.513 18.442-78.779z" fill="#fff" stroke="#969696" stroke-width="15" glyph-name="cloud-6" horiz-adv-x="1205.1" unicode="î¡">
   <animateTransform id="anim1" begin="0s;anim4.end" from="0 0" attributeName="transform" to="60 0" attributeType="xml" dur="1s" type="translate"/>
  <animateTransform id="anim2" begin="anim1.end" from="60 0" attributeName="transform" to="0 0" attributeType="xml" dur="1s" type="translate"/>
  <animateTransform id="anim3" begin="anim2.end" from="0 0" attributeName="transform" to="-60 0" attributeType="xml" dur="1s" type="translate"/>
  <animateTransform id="anim4" begin="anim3.end" from="-60 0" attributeName="transform" to="0 0" attributeType="xml" dur="1s" type="translate"/>
 </path>
</svg>
