<?xml version="1.0" encoding="UTF-8" standalone="no"?>
<svg id="svg2" xmlns:rdf="http://www.w3.org/1999/02/22-rdf-syntax-ns#" xmlns="http://www.w3.org/2000/svg" height="500" width="500" version="1.1" xmlns:cc="http://creativecommons.org/ns#" xmlns:dc="http://purl.org/dc/elements/1.1/">
 <metadata id="metadata7">image/svg+xml
  <rdf:RDF>
   <cc:Work rdf:about="">
    <dc:format>image/svg+xml</dc:format>
    <dc:type rdf:resource="http://purl.org/dc/dcmitype/StillImage"/>
    <dc:title/>
   </cc:Work>
  </rdf:RDF>
 </metadata>
 <g id="g6">
  <title id="title3">background</title>
  <rect id="canvas_background" x="-1" y="-1" width="582" height="402" fill="none"/>
 </g>
 <g id="svg_12" transform="matrix(1.3632 0 0 1.3632 -90.114 -95.566)" stroke="null">
  <g id="svg_10" transform="matrix(.78877 0 0 .82189 -372.41 -414.39)">
   <title id="title10" transform="translate(638.45 662.64)">background</title>
   <rect id="svg_8" x="637.45" y="661.64" width="302" height="302" fill="none"/>
  </g>
  <g id="svg_11" transform="matrix(.78877 0 0 .82189 -372.41 -414.39)">
   <title id="title14" transform="translate(638.45 662.64)">Layer 1</title>
   <g id="svg_6" transform="rotate(15 788.45 811.14)">
    <path id="svg_7" d="m855.08 856.65c-63.196 0-114.39-48.855-114.39-109.1 0-19.839 5.9698-38.187 15.679-54.203-52.676 14.492-91.42 60.271-91.42 115.16 0 66.48 56.502 120.4 126.21 120.4 57.557 0 105.59-36.978 120.78-87.186-16.825 9.2293-36.061 14.925-56.863 14.925z" fill="#4c4c4c" stroke="null"/>
   </g>
  </g>
 </g>
 <path id="path4915" d="m189.63 51.47c-8.1491 0-14.749 10.252-14.749 22.885 0 12.634 6.5996 22.885 14.749 22.885h88.5c8.1424 0 14.749-10.252 14.749-22.885 0-12.634-6.6076-22.885-14.749-22.885zm-88.5 68.66c-8.1491 0-14.749 10.252-14.749 22.885 0 12.634 6.6009 22.885 14.749 22.885h177c8.1424 0 14.749-10.252 14.749-22.885 0-12.634-6.6076-22.885-14.749-22.885zm228.63 0c-8.1491 0-14.749 10.252-14.749 22.885 0 12.634 6.6009 22.885 14.749 22.885h59c8.1424 0 14.749-10.252 14.749-22.885 0-12.634-6.6076-22.885-14.749-22.885zm-272.88 68.66c-8.1491 0-14.749 10.252-14.749 22.885 0 12.634 6.6009 22.885 14.749 22.885h177c8.1424 0 14.749-10.252 14.749-22.885 0-12.634-6.6076-22.885-14.749-22.885zm221.25 0c-8.1491 0-14.749 10.252-14.749 22.885 0 12.634 6.6009 22.885 14.749 22.885h154.88c8.1424 0 14.749-10.252 14.749-22.885 0-12.634-6.6076-22.885-14.749-22.885zm-243.37 68.647c-8.1491 0-14.749 10.252-14.749 22.885 0 12.634 6.6009 22.885 14.749 22.885h442.51c8.1424 0 14.749-10.252 14.749-22.885 0-12.634-6.6076-22.885-14.749-22.885zm22.125 68.66c-8.1491 0-14.749 10.252-14.749 22.885 0 12.634 6.6009 22.885 14.749 22.885h420.37c8.1424 0 14.749-10.252 14.749-22.885 0-12.634-6.6076-22.885-14.749-22.885zm44.251 68.66c-8.1491 0-14.749 10.252-14.749 22.885 0 12.634 6.6009 22.885 14.749 22.885h88.5c8.1424 0 14.749-10.252 14.749-22.885 0-12.634-6.6089-22.885-14.749-22.885zm132.75 0c-8.1491 0-14.749 10.252-14.749 22.885 0 12.634 6.6009 22.885 14.749 22.885h199.12c8.1424 0 14.749-10.252 14.749-22.885 0-12.634-6.6089-22.885-14.749-22.885z" fill="#ccc" opacity=".8" stroke="null"/>
</svg>
