<?xml version="1.0" encoding="UTF-8" standalone="no"?>
<svg id="svg2" xmlns:rdf="http://www.w3.org/1999/02/22-rdf-syntax-ns#" xmlns="http://www.w3.org/2000/svg" height="500" width="500" version="1.1" xmlns:cc="http://creativecommons.org/ns#" xmlns:dc="http://purl.org/dc/elements/1.1/">
 <metadata id="metadata7">
  <rdf:RDF>
   <cc:Work rdf:about="">
    <dc:format>image/svg+xml</dc:format>
    <dc:type rdf:resource="http://purl.org/dc/dcmitype/StillImage"/>
    <dc:title/>
   </cc:Work>
  </rdf:RDF>
 </metadata>
 <g id="g20" transform="matrix(1.0858 0 0 1.0858 103.89 -147.14)">
  <title id="title8">Layer 1</title>
  <g id="svg_12" stroke="null">
   <g id="svg_10" transform="matrix(.78877 0 0 .82189 -372.41 -414.39)">
    <title id="title10" transform="translate(638.45 662.64)">background</title>
    <rect id="svg_8" x="637.45" y="661.64" width="302" height="302" fill="none"/>
   </g>
   <g id="svg_11" transform="matrix(.78877 0 0 .82189 -372.41 -414.39)">
    <title id="title14" transform="translate(638.45 662.64)">Layer 1</title>
    <g id="svg_6" transform="rotate(15 788.45 811.14)">
     <path id="svg_7" d="m855.08 856.65c-63.196 0-114.39-48.855-114.39-109.1 0-19.839 5.9698-38.187 15.679-54.203-52.676 14.492-91.42 60.271-91.42 115.16 0 66.48 56.502 120.4 126.21 120.4 57.557 0 105.59-36.978 120.78-87.186-16.825 9.2293-36.061 14.925-56.863 14.925z" fill="#4c4c4c" stroke="null"/>
    </g>
   </g>
  </g>
 </g>
 <g stroke="#969696">
  <path id="path4-4" d="m421.36 214.37c-4.6702-7.3101-10.458-13.808-17.362-19.493-24.13-19.04-49.933-21.535-70.968-19.975-11.529-45.217-40.786-71.024-84.37-71.473-12.59 0-24.57 2.5382-35.941 7.6146-11.371 5.0764-21.219 11.574-29.545 19.494-8.3254 7.9192-14.924 17.869-19.798 29.849-5.4868 15.355-6.8295 23.692-7.0055 39.545-15.682-3.9634-37.045-4.9672-50.256 0.30459-15.839 6.9039-27.006 18.681-33.504 35.332-4.0611 11.168-5.2795 22.133-3.655 32.896 1.6244 10.762 5.9902 20.61 13.097 29.545 7.107 8.9345 16.042 15.432 26.803 19.493 7.5132 2.8428 14.924 4.2642 22.235 4.2642h218.69c17.463 0 33.504 2.7385 48.125-7.2113 35.583-25.102 42.547-69.324 23.453-100.18z" fill="#eee" stroke-width="15" glyph-name="cloud-6" horiz-adv-x="1205.1" unicode=""/>
  <path id="path3795" d="m226.85 320.19q2.9665 1.5974 3.7652 4.9062t-0.79868 6.2754l-3.9934 6.9599q-1.7115 2.9665-5.0203 3.7652-3.3088 0.79869-6.1612-0.79868l-17-9.6983v19.511q0 3.3088-2.396 5.7049-2.396 2.396-5.7049 2.5101h-8.1009q-3.3088 0-5.819-2.5101t-2.396-5.7049v-19.511l-16.886 9.6983q-2.9665 1.7115-6.2754 0.79868-3.3088-0.91277-4.9062-3.7652l-4.1075-6.9599q-1.5974-2.9665-0.79868-6.2754t3.8793-4.9062l16.886-9.8124-16.886-9.8124q-2.9665-1.5974-3.8793-4.9062t0.79868-6.2754l4.1075-6.9599q1.7115-2.9665 4.9062-3.7652 3.1947-0.79868 6.2754 0.79868l16.886 9.6983v-19.511q0-3.3088 2.396-5.7049t5.819-2.5101h8.1009q3.3088 0 5.7049 2.5101 2.396 2.5101 2.396 5.7049v19.511l17-9.6983q2.9665-1.7115 6.1612-0.79868t5.0203 3.7652l3.9934 6.9599q1.7115 2.9665 0.79868 6.2754-0.91277 3.3088-3.7652 4.9062l-16.886 9.8124z" fill="#fff" stroke-width="11.997" glyph-name="asterisk" horiz-adv-x="928.6" unicode="">
   <animateTransform id="anim1" from="0 -30" repeatCount="indefinite" attributeName="transform" to="0 80" attributeType="xml" dur="1.5s" type="translate"/>
   <animate id="anim2" from="0" repeatCount="indefinite" attributeName="opacity" to="1" dur="1.5s"/>
  </path>
  <path id="path4" d="m369.75 372.68q2.9665 1.5974 3.7652 4.9062t-0.79868 6.2754l-3.9934 6.9599q-1.7115 2.9665-5.0203 3.7652-3.3088 0.79869-6.1612-0.79868l-17-9.6983v19.511q0 3.3088-2.396 5.7049-2.396 2.396-5.7049 2.5101h-8.1009q-3.3088 0-5.819-2.5101t-2.396-5.7049v-19.511l-16.886 9.6983q-2.9665 1.7115-6.2754 0.79868-3.3088-0.91277-4.9062-3.7652l-4.1075-6.9599q-1.5974-2.9665-0.79868-6.2754t3.8793-4.9062l16.886-9.8124-16.886-9.8124q-2.9665-1.5974-3.8793-4.9062t0.79868-6.2754l4.1075-6.9599q1.7115-2.9665 4.9062-3.7652 3.1947-0.79868 6.2754 0.79868l16.886 9.6983v-19.511q0-3.3088 2.396-5.7049t5.819-2.5101h8.1009q3.3088 0 5.7049 2.5101 2.396 2.5101 2.396 5.7049v19.511l17-9.6983q2.9665-1.7115 6.1612-0.79868t5.0203 3.7652l3.9934 6.9599q1.7115 2.9665 0.79868 6.2754-0.91277 3.3088-3.7652 4.9062l-16.886 9.8124z" fill="#fff" stroke-width="11.997" glyph-name="asterisk" horiz-adv-x="928.6" unicode="">
   <animateTransform id="anim3" from="0 -80" repeatCount="indefinite" attributeName="transform" to="0 15" attributeType="xml" dur="2.0s" type="translate"/>
   <animate id="anim4" from="0" repeatCount="indefinite" attributeName="opacity" to="1" dur="2.0s"/>
  </path>
 </g>
</svg>
