<?xml version="1.0" encoding="UTF-8" standalone="no"?>
<svg id="svg2" xmlns:rdf="http://www.w3.org/1999/02/22-rdf-syntax-ns#" xmlns="http://www.w3.org/2000/svg" height="500" width="500" version="1.1" xmlns:cc="http://creativecommons.org/ns#" xmlns:dc="http://purl.org/dc/elements/1.1/">
 <metadata id="metadata7">image/svg+xml
  <rdf:RDF>
   <cc:Work rdf:about="">
    <dc:format>image/svg+xml</dc:format>
    <dc:type rdf:resource="http://purl.org/dc/dcmitype/StillImage"/>
    <dc:title/>
   </cc:Work>
  </rdf:RDF>
 </metadata>
 <g id="g6">
  <title id="title3">background</title>
  <rect id="canvas_background" x="-1" y="-1" width="582" height="402" fill="none"/>
 </g>
 <g id="g24">
  <title id="title8">Layer 1</title>
  <g id="svg_21" stroke="null">
   <g id="svg_19" transform="matrix(.89473 0 0 .83182 -269.46 -295.59)">
    <title id="title10" transform="translate(430.02 439.78)">background</title>
    <rect id="svg_17" x="429.02" y="438.78" width="302" height="302" fill="none"/>
   </g>
   <g id="svg_20" transform="matrix(.89473 0 0 .83182 -269.46 -295.59)">
    <title id="title14" transform="translate(430.02 439.78)">Layer 1</title>
    <g id="svg_15" transform="rotate(15 580.02 588.28)">
     <path id="svg_16" d="m646.65 633.8c-63.196 0-114.39-48.855-114.39-109.1 0-19.839 5.9698-38.187 15.679-54.203-52.676 14.492-91.42 60.271-91.42 115.16 0 66.48 56.502 120.4 126.21 120.4 57.557 0 105.59-36.978 120.78-87.186-16.825 9.2293-36.061 14.925-56.863 14.925l1e-6 1e-6z" fill="#4c4c4c" stroke="null"/>
    </g>
   </g>
  </g>
  <path id="path4895" d="m464.77 169.18c-3.6224-5.9549-8.111-11.248-13.466-15.88-18.722-15.508-38.736-17.54-55.052-16.269-8.9344-36.835-31.626-57.859-65.432-58.224-9.7648 0-19.057 2.0676-27.877 6.203-8.8198 4.1354-16.459 9.4287-22.915 15.88-6.4574 6.4512-11.576 14.557-15.356 24.316-4.2557 12.509-5.2971 19.3-5.4336 32.214-12.163-3.2288-28.734-4.0464-38.98 0.24812-12.284 5.6241-20.947 15.218-25.987 28.782-3.1499 9.0977-4.0949 18.03-2.8348 26.797 1.2599 8.767 4.6461 16.79 10.158 24.068 5.5123 7.2783 12.442 12.572 20.79 15.88 5.8274 2.3158 11.576 3.4737 17.246 3.4737h169.62c13.545 0 25.987 2.2309 37.327-5.8745 27.598-20.449 33-56.472 18.191-81.611l-0.00237-0.001954z" fill="#fff" opacity=".9" stroke="#969696" stroke-width="15">
   <animateTransform id="anim3" begin="0s;anim4.end" from="0 0" attributeName="transform" to="-40 0" attributeType="xml" dur="1.5s" type="translate"/>
   <animateTransform id="anim4" begin="anim3.end" from="-40 0" attributeName="transform" to="0 0" attributeType="xml" dur="1.5s" type="translate"/>
  </path>
  <metadata id="svg_7" transform="scale(.11111)">image/svg+xml</metadata>
  <g id="svg_9" stroke="null">
   <path id="svg_6" d="m432.32 302.29c-4.9112-7.7287-10.997-14.598-18.257-20.609-25.375-20.13-52.51-22.768-74.63-21.12-12.124-47.806-42.889-75.09-88.723-75.566-13.239 0-25.838 2.6836-37.795 8.0506-11.958 5.3671-22.315 12.236-31.069 20.609-8.7549 8.3726-15.695 18.892-20.82 31.558-5.77 16.234-7.1819 25.048-7.3669 41.81-16.491-4.1904-38.957-5.2517-52.85 0.32202-16.656 7.2992-28.4 19.75-35.233 37.355-4.2707 11.808-5.5519 23.401-3.8436 34.779s6.2992 21.791 13.772 31.236c7.4737 9.4461 16.869 16.316 28.186 20.609 7.9007 3.0056 15.695 4.5084 23.382 4.5084h229.98c18.364 0 35.233 2.8953 50.607-7.6242 37.418-26.54 44.743-73.293 24.663-105.92l4.22e-4 0.001613z" fill="#eee" stroke="#969696" stroke-width="15">
    <animateTransform id="anim1" begin="0s;anim2.end" from="0 0" attributeName="transform" to="40 0" attributeType="xml" dur="1.5s" type="translate"/>
    <animateTransform id="anim2" begin="anim1.end" from="40 0" attributeName="transform" to="0 0" attributeType="xml" dur="1.5s" type="translate"/>
   </path>
  </g>
 </g>
</svg>
